<svg width="134" height="40" viewBox="0 0 134 40" fill="none" xmlns="http://www.w3.org/2000/svg">
<path d="M0.278409 5.63636C0.278409 7.78409 0.857955 9.57386 1.89773 11.0909H2.78409C1.96591 9.96591 1.31818 7.66477 1.31818 5.63636C1.31818 3.60795 1.96591 1.30682 2.78409 0.181818H1.89773C0.857955 1.69886 0.278409 3.48864 0.278409 5.63636ZM6.82493 8.46591H7.77947V6.13068H10.1147V5.17614H7.77947V2.84091H6.82493V5.17614H4.4897V6.13068H6.82493V8.46591ZM14.9396 1.13636C13.1669 1.11932 12.0249 2.44886 12.0249 4.06818C12.0249 5.75568 13.2692 6.96591 14.7692 6.96591C15.6726 6.96591 16.4396 6.52273 16.9169 5.80682H16.9851C16.9851 7.95455 16.1499 9.18182 14.8033 9.18182C13.8828 9.18182 13.3203 8.60227 13.1328 7.80114H12.093C12.2976 9.18182 13.3374 10.1193 14.8033 10.1193C16.7635 10.1193 17.9737 8.38068 17.9737 5.27841C17.9737 2.05682 16.3714 1.15341 14.9396 1.13636ZM14.9396 2.07386C16.0305 2.07386 16.8317 3.01136 16.8317 4.05114C16.8317 5.09091 15.9794 6.02841 14.9055 6.02841C13.8317 6.02841 13.0476 5.15909 13.0476 4.06818C13.0476 2.96023 13.8658 2.07386 14.9396 2.07386ZM22.4279 1.13636C20.6552 1.11932 19.5131 2.44886 19.5131 4.06818C19.5131 5.75568 20.7575 6.96591 22.2575 6.96591C23.1609 6.96591 23.9279 6.52273 24.4052 5.80682H24.4734C24.4734 7.95455 23.6381 9.18182 22.2915 9.18182C21.3711 9.18182 20.8086 8.60227 20.6211 7.80114H19.5813C19.7859 9.18182 20.8256 10.1193 22.2915 10.1193C24.2518 10.1193 25.462 8.38068 25.462 5.27841C25.462 2.05682 23.8597 1.15341 22.4279 1.13636ZM22.4279 2.07386C23.5188 2.07386 24.32 3.01136 24.32 4.05114C24.32 5.09091 23.4677 6.02841 22.3938 6.02841C21.32 6.02841 20.5359 5.15909 20.5359 4.06818C20.5359 2.96023 21.354 2.07386 22.4279 2.07386ZM29.9332 10.1193C31.6761 10.1193 32.8906 9.10085 32.8991 7.68182C32.8906 6.57812 32.1534 5.64062 31.2116 5.46591V5.41477C32.0298 5.2017 32.5668 4.40057 32.5753 3.47159C32.5668 2.14205 31.4503 1.15341 29.9332 1.15341C28.3991 1.15341 27.2827 2.14205 27.2912 3.47159C27.2827 4.40057 27.8196 5.2017 28.6548 5.41477V5.46591C27.696 5.64062 26.9588 6.57812 26.9673 7.68182C26.9588 9.10085 28.1733 10.1193 29.9332 10.1193ZM29.9332 9.18182C28.7358 9.18182 27.9986 8.56818 28.0071 7.63068C27.9986 6.64631 28.8125 5.94318 29.9332 5.94318C31.0369 5.94318 31.8509 6.64631 31.8594 7.63068C31.8509 8.56818 31.1136 9.18182 29.9332 9.18182ZM29.9332 5.03977C28.9787 5.03977 28.3054 4.44318 28.3139 3.53977C28.3054 2.65341 28.9531 2.07386 29.9332 2.07386C30.8963 2.07386 31.544 2.65341 31.5526 3.53977C31.544 4.44318 30.8707 5.03977 29.9332 5.03977ZM34.805 10H35.913L39.7994 2.26136V1.27273H34.2085V2.21023H38.7085V2.27841L34.805 10ZM44.456 1.27273H43.3991L41.2173 2.72159V3.79545L43.348 2.38068H43.3991V10H44.456V1.27273ZM49.1307 5.63636C49.1307 3.48864 48.5511 1.69886 47.5114 0.181818H46.625C47.4432 1.30682 48.0909 3.60795 48.0909 5.63636C48.0909 7.66477 47.4432 9.96591 46.625 11.0909H47.5114C48.5511 9.57386 49.1307 7.78409 49.1307 5.63636ZM0.414773 39H12.858V35.983H5.52841V35.8636L8.0767 33.3665C11.6648 30.0938 12.6278 28.4574 12.6278 26.4716C12.6278 23.446 10.1562 21.3068 6.41477 21.3068C2.75 21.3068 0.235796 23.4972 0.244318 26.9233H3.74716C3.73864 25.2528 4.79545 24.2301 6.3892 24.2301C7.9233 24.2301 9.06534 25.1847 9.06534 26.7188C9.06534 28.108 8.21307 29.0625 6.62784 30.5881L0.414773 36.3409V39ZM22.3757 39.3835C26.7649 39.3835 29.4155 36.0426 29.424 30.2898C29.4325 24.5795 26.7479 21.3068 22.3757 21.3068C17.995 21.3068 15.3359 24.571 15.3274 30.2898C15.3104 36.0256 17.978 39.375 22.3757 39.3835ZM22.3757 36.3239C20.3729 36.3239 19.0774 34.3125 19.0859 30.2898C19.0945 26.3267 20.3814 24.3324 22.3757 24.3324C24.3615 24.3324 25.657 26.3267 25.657 30.2898C25.6655 34.3125 24.37 36.3239 22.3757 36.3239ZM38.8991 39.3835C43.2884 39.3835 45.9389 36.0426 45.9474 30.2898C45.956 24.5795 43.2713 21.3068 38.8991 21.3068C34.5185 21.3068 31.8594 24.571 31.8509 30.2898C31.8338 36.0256 34.5014 39.375 38.8991 39.3835ZM38.8991 36.3239C36.8963 36.3239 35.6009 34.3125 35.6094 30.2898C35.6179 26.3267 36.9048 24.3324 38.8991 24.3324C40.8849 24.3324 42.1804 26.3267 42.1804 30.2898C42.1889 34.3125 40.8935 36.3239 38.8991 36.3239ZM56.7692 28.8324H48.8089V31.7131H56.7692V28.8324ZM66.2038 39.2386C70.0902 39.2386 72.7322 36.7074 72.7237 33.179C72.7322 29.8381 70.397 27.4347 67.2521 27.4347C65.718 27.4347 64.397 28.0739 63.7834 28.9347H63.6811L64.1328 24.5625H71.7607V21.5455H61.0902L60.2635 30.75L63.5447 31.3381C64.0817 30.6136 65.1214 30.1619 66.1527 30.1619C67.9084 30.1705 69.1697 31.4403 69.1697 33.2727C69.1697 35.0881 67.9339 36.3409 66.2038 36.3409C64.7379 36.3409 63.5533 35.4205 63.468 34.0653H59.8885C59.9567 37.0824 62.5902 39.2386 66.2038 39.2386ZM75.0334 35.9318H83.4112V39H86.9396V35.9318H89.1044V32.9744H86.9396V21.5455H82.3203L75.0334 33.0256V35.9318ZM83.4794 32.9744H78.7493V32.8381L83.343 25.5682H83.4794V32.9744ZM99.7536 28.8324H91.7933V31.7131H99.7536V28.8324ZM109.657 39.3835C114.046 39.3835 116.697 36.0426 116.705 30.2898C116.714 24.5795 114.029 21.3068 109.657 21.3068C105.276 21.3068 102.617 24.571 102.609 30.2898C102.592 36.0256 105.259 39.375 109.657 39.3835ZM109.657 36.3239C107.654 36.3239 106.359 34.3125 106.367 30.2898C106.376 26.3267 107.663 24.3324 109.657 24.3324C111.643 24.3324 112.938 26.3267 112.938 30.2898C112.947 34.3125 111.651 36.3239 109.657 36.3239ZM126.18 39.3835C130.57 39.3835 133.22 36.0426 133.229 30.2898C133.237 24.5795 130.553 21.3068 126.18 21.3068C121.8 21.3068 119.141 24.571 119.132 30.2898C119.115 36.0256 121.783 39.375 126.18 39.3835ZM126.18 36.3239C124.178 36.3239 122.882 34.3125 122.891 30.2898C122.899 26.3267 124.186 24.3324 126.18 24.3324C128.166 24.3324 129.462 26.3267 129.462 30.2898C129.47 34.3125 128.175 36.3239 126.18 36.3239Z" fill="white"/>
</svg>
